<svg xmlns="http://www.w3.org/2000/svg" width="800" height="600" viewBox="0 0 800 600" role="img" aria-label="Placeholder - Cultural Details">
  <defs>
    <linearGradient id="bg" x1="0" y1="0" x2="1" y2="1">
      <stop offset="0" stop-color="#7A4A2B"/>
      <stop offset="1" stop-color="#E8A24E"/>
    </linearGradient>
    <radialGradient id="sun" cx="0.5" cy="0.5" r="0.5">
      <stop offset="0" stop-color="#FFD166" stop-opacity="0.95"/>
      <stop offset="1" stop-color="#FFD166" stop-opacity="0"/>
    </radialGradient>
  </defs>
  <rect width="800" height="600" fill="url(#bg)"/>
  <circle cx="192" cy="132" r="202" fill="url(#sun)"/>
  <circle cx="192" cy="132" r="96" fill="#FFD166" opacity="0.9"/>
  <circle cx="640" cy="96" r="60" fill="#FFFFFF" opacity="0.14"/>
  <circle cx="704" cy="444" r="156" fill="#FFFFFF" opacity="0.05"/>
  <path d="M0 480 C 160 540, 240 480, 400 540 S 640 504, 800 480 L 800 600 L 0 600 Z" fill="#FFFFFF" opacity="0.10"/>
  <path d="M0 540 C 160 504, 240 540, 400 504 S 640 552, 800 540 L 800 600 L 0 600 Z" fill="#FFFFFF" opacity="0.06"/>
  <text x="400" y="276" text-anchor="middle" font-family="Georgia, serif" font-size="30" font-weight="600" fill="#FFFFFF" opacity="0.95" letter-spacing="2">Cultural Details</text>
  <g transform="translate(20 520)">
    <rect width="270" height="54" rx="27" fill="#07232F" opacity="0.62"/>
    <text x="26" y="22" font-family="Arial, sans-serif" font-size="13" font-weight="700" letter-spacing="3" fill="#F4C770">BOCANA</text>
    <text x="26" y="41" font-family="Arial, sans-serif" font-size="11" fill="#CFE8F2">Replace with official photo</text>
  </g>
</svg>