<svg xmlns="http://www.w3.org/2000/svg" width="640" height="820" viewBox="0 0 640 820" role="img" aria-label="Placeholder - Leadership">
  <defs>
    <linearGradient id="bg" x1="0" y1="0" x2="1" y2="1">
      <stop offset="0" stop-color="#082F4B"/>
      <stop offset="1" stop-color="#145C6B"/>
    </linearGradient>
    <radialGradient id="sun" cx="0.5" cy="0.5" r="0.5">
      <stop offset="0" stop-color="#F4C770" stop-opacity="0.95"/>
      <stop offset="1" stop-color="#F4C770" stop-opacity="0"/>
    </radialGradient>
  </defs>
  <rect width="640" height="820" fill="url(#bg)"/>
  <circle cx="154" cy="180" r="214" fill="url(#sun)"/>
  <circle cx="154" cy="180" r="102" fill="#F4C770" opacity="0.9"/>
  <circle cx="512" cy="131" r="64" fill="#FFFFFF" opacity="0.14"/>
  <circle cx="563" cy="607" r="166" fill="#FFFFFF" opacity="0.05"/>
  <path d="M0 656 C 128 738, 192 656, 320 738 S 512 689, 640 656 L 640 820 L 0 820 Z" fill="#FFFFFF" opacity="0.10"/>
  <path d="M0 738 C 128 689, 192 738, 320 689 S 512 754, 640 738 L 640 820 L 0 820 Z" fill="#FFFFFF" opacity="0.06"/>
  <text x="320" y="377" text-anchor="middle" font-family="Georgia, serif" font-size="32" font-weight="600" fill="#FFFFFF" opacity="0.95" letter-spacing="2">Leadership</text>
  <g transform="translate(20 740)">
    <rect width="270" height="54" rx="27" fill="#07232F" opacity="0.62"/>
    <text x="26" y="22" font-family="Arial, sans-serif" font-size="13" font-weight="700" letter-spacing="3" fill="#F4C770">BOCANA</text>
    <text x="26" y="41" font-family="Arial, sans-serif" font-size="11" fill="#CFE8F2">Replace with official photo</text>
  </g>
</svg>